<svg id="Sign_Up_Module" data-name="Sign Up Module" xmlns="http://www.w3.org/2000/svg" xmlns:xlink="http://www.w3.org/1999/xlink" viewBox="-27 1064 1974 268.378">
  <defs>
    <style>
      .cls-1 {
        fill: #fafafa;
      }

      .cls-2 {
        font-size: 32px;
        opacity: 0.94;
      }

      .cls-2, .cls-4, .cls-6, .cls-7 {
        font-family: Roboto-Regular, Roboto;
      }

      .cls-3 {
        fill: #9f9c9c;
      }

      .cls-4 {
        fill: #f4f6f7;
        opacity: 0.894;
      }

      .cls-4, .cls-6, .cls-7 {
        font-size: 24px;
      }

      .cls-5 {
        fill: #fff;
      }

      .cls-6 {
        opacity: 0.538;
      }

      .cls-7 {
        opacity: 0.541;
      }

      .cls-8 {
        filter: url(#Search_bar_for_address);
      }

      .cls-9 {
        filter: url(#Field_for_Name);
      }

      .cls-10 {
        filter: url(#Send_me_market_offerings_button.);
      }

      .cls-11 {
        filter: url(#Sign_up_block);
      }
    </style>
    <filter id="Sign_up_block" x="-27" y="1064" width="1974" height="268.378" filterUnits="userSpaceOnUse">
      <feOffset dy="9" input="SourceAlpha"/>
      <feGaussianBlur stdDeviation="9" result="blur"/>
      <feFlood flood-opacity="0.18"/>
      <feComposite operator="in" in2="blur"/>
      <feComposite in="SourceGraphic"/>
    </filter>
    <filter id="Send_me_market_offerings_button." x="1427.787" y="1144.5" width="265.439" height="94.742" filterUnits="userSpaceOnUse">
      <feOffset dy="3" input="SourceAlpha"/>
      <feGaussianBlur stdDeviation="3" result="blur-2"/>
      <feFlood flood-opacity="0.161"/>
      <feComposite operator="in" in2="blur-2"/>
      <feComposite in="SourceGraphic"/>
    </filter>
    <filter id="Field_for_Name" x="376.719" y="1144.5" width="385.13" height="81.363" filterUnits="userSpaceOnUse">
      <feOffset dy="3" input="SourceAlpha"/>
      <feGaussianBlur stdDeviation="3" result="blur-3"/>
      <feFlood flood-opacity="0.161"/>
      <feComposite operator="in" in2="blur-3"/>
      <feComposite in="SourceGraphic"/>
    </filter>
    <filter id="Search_bar_for_address" x="860.719" y="1144.5" width="468.13" height="81.363" filterUnits="userSpaceOnUse">
      <feOffset dy="3" input="SourceAlpha"/>
      <feGaussianBlur stdDeviation="3" result="blur-4"/>
      <feFlood flood-opacity="0.161"/>
      <feComposite operator="in" in2="blur-4"/>
      <feComposite in="SourceGraphic"/>
    </filter>
  </defs>
  <g class="cls-11" transform="matrix(1, 0, 0, 1, 0, 0)">
    <path id="Sign_up_block-2" data-name="Sign up block" class="cls-1" d="M0,0H1920V214.378H0Z" transform="translate(0 1082)"/>
  </g>
  <text id="Sign_up_for_recipes." data-name="Sign up for recipes." class="cls-2" transform="translate(977 1127)"><tspan x="-136.867" y="0">Sign up for recipes.</tspan></text>
  <g class="cls-10" transform="matrix(1, 0, 0, 1, 0, 0)">
    <path id="Send_me_market_offerings_button.-2" data-name="Send me market offerings button." class="cls-3" d="M.774.5H247.666c.151,0,.274.26.274.581V76.661c0,.321-.123.581-.274.581H.774c-.151,0-.274-.26-.274-.581V1.081C.5.76.623.5.774.5Z" transform="translate(1436.29 1150)"/>
  </g>
  <text id="Field_for_Email_Address" data-name="Field for Email Address" class="cls-4" transform="translate(1473 1183)"><tspan x="0" y="0">Send me market</tspan><tspan x="0" y="28">offerings.</tspan></text>
  <g class="cls-9" transform="matrix(1, 0, 0, 1, 0, 0)">
    <path id="Field_for_Name-2" data-name="Field for Name" class="cls-5" d="M.906.5H367.224a.448.448,0,0,1,.406.48v62.4a.448.448,0,0,1-.406.48H.906a.448.448,0,0,1-.406-.48V.98A.448.448,0,0,1,.906.5Z" transform="translate(385.22 1150)"/>
  </g>
  <g class="cls-8" transform="matrix(1, 0, 0, 1, 0, 0)">
    <path id="Search_bar_for_address-2" data-name="Search bar for address" class="cls-5" d="M1,.5H450.132a.489.489,0,0,1,.5.48v62.4a.489.489,0,0,1-.5.48H1a.489.489,0,0,1-.5-.48V.98A.489.489,0,0,1,1,.5Z" transform="translate(869.22 1150)"/>
  </g>
  <text id="Name" class="cls-6" transform="translate(386 1239)"><tspan x="0" y="0">Name</tspan></text>
  <text id="Email_Address" data-name="Email Address" class="cls-7" transform="translate(870 1239)"><tspan x="0" y="0">Email Address</tspan></text>
</svg>
