<svg xmlns="http://www.w3.org/2000/svg" xmlns:xlink="http://www.w3.org/1999/xlink" viewBox="0 0 1920 1420">
  <defs>
    <style>
      .cls-1, .cls-9 {
        fill: none;
      }

      .cls-2 {
        clip-path: url(#clip-Home_Desktop_1920);
      }

      .cls-3 {
        fill: #fafafa;
      }

      .cls-4 {
        font-size: 48px;
        font-family: Roboto-Bold, Roboto;
        font-weight: 700;
        opacity: 0.874;
      }

      .cls-5 {
        fill: #fff;
      }

      .cls-6 {
        opacity: 0.54;
      }

      .cls-13, .cls-14, .cls-16, .cls-17, .cls-7, .cls-8 {
        font-size: 24px;
      }

      .cls-10, .cls-11, .cls-13, .cls-14, .cls-15, .cls-16, .cls-17, .cls-7, .cls-8 {
        font-family: Roboto-Regular, Roboto;
      }

      .cls-7 {
        opacity: 0.38;
      }

      .cls-8 {
        opacity: 0.542;
      }

      .cls-19, .cls-9 {
        stroke: #95989a;
      }

      .cls-10, .cls-15 {
        font-size: 32px;
      }

      .cls-10 {
        opacity: 0.937;
      }

      .cls-11 {
        font-size: 36px;
        opacity: 0.938;
      }

      .cls-12 {
        fill: #9f9c9c;
      }

      .cls-13 {
        opacity: 0.382;
      }

      .cls-14 {
        fill: #f4f6f7;
        opacity: 0.894;
      }

      .cls-15 {
        opacity: 0.94;
      }

      .cls-16 {
        opacity: 0.538;
      }

      .cls-17 {
        opacity: 0.541;
      }

      .cls-18 {
        clip-path: url(#clip-path);
      }

      .cls-19 {
        fill: #c6c5c7;
        opacity: 0.283;
      }

      .cls-20 {
        stroke: none;
      }

      .cls-21 {
        filter: url(#Content_Block);
      }

      .cls-22 {
        filter: url(#Search_bar_for_address-2);
      }

      .cls-23 {
        filter: url(#Field_for_Name);
      }

      .cls-24 {
        filter: url(#Send_me_market_offerings_button.);
      }

      .cls-25 {
        filter: url(#Sign_up_block);
      }

      .cls-26 {
        filter: url(#Search_around_me_button);
      }

      .cls-27 {
        filter: url(#Search_bar_for_address);
      }

      .cls-28 {
        filter: url(#rectangle-4);
      }

      .cls-29 {
        filter: url(#rectangle-3);
      }

      .cls-30 {
        filter: url(#rectangle-2);
      }

      .cls-31 {
        filter: url(#rectangle);
      }
    </style>
    <filter id="rectangle" x="-27" y="-18" width="1974" height="200" filterUnits="userSpaceOnUse">
      <feOffset dy="9" input="SourceAlpha"/>
      <feGaussianBlur stdDeviation="9" result="blur"/>
      <feFlood flood-opacity="0.18"/>
      <feComposite operator="in" in2="blur"/>
      <feComposite in="SourceGraphic"/>
    </filter>
    <filter id="rectangle-2" x="44" y="20.192" width="239" height="65.308" filterUnits="userSpaceOnUse">
      <feOffset dy="3" input="SourceAlpha"/>
      <feGaussianBlur stdDeviation="3" result="blur-2"/>
      <feFlood flood-opacity="0.161"/>
      <feComposite operator="in" in2="blur-2"/>
      <feComposite in="SourceGraphic"/>
    </filter>
    <filter id="rectangle-3" x="-27" y="595" width="1975" height="522" filterUnits="userSpaceOnUse">
      <feOffset dy="9" input="SourceAlpha"/>
      <feGaussianBlur stdDeviation="9" result="blur-3"/>
      <feFlood flood-opacity="0.18"/>
      <feComposite operator="in" in2="blur-3"/>
      <feComposite in="SourceGraphic"/>
    </filter>
    <filter id="rectangle-4" x="-28" y="125" width="1974.5" height="523.5" filterUnits="userSpaceOnUse">
      <feOffset dy="9" input="SourceAlpha"/>
      <feGaussianBlur stdDeviation="9" result="blur-4"/>
      <feFlood flood-opacity="0.18"/>
      <feComposite operator="in" in2="blur-4"/>
      <feComposite in="SourceGraphic"/>
    </filter>
    <filter id="Search_bar_for_address" x="576.156" y="264.5" width="588.693" height="81.363" filterUnits="userSpaceOnUse">
      <feOffset dy="3" input="SourceAlpha"/>
      <feGaussianBlur stdDeviation="3" result="blur-5"/>
      <feFlood flood-opacity="0.161"/>
      <feComposite operator="in" in2="blur-5"/>
      <feComposite in="SourceGraphic"/>
    </filter>
    <filter id="Search_around_me_button" x="1170.787" y="268.5" width="242.447" height="72.625" filterUnits="userSpaceOnUse">
      <feOffset dy="3" input="SourceAlpha"/>
      <feGaussianBlur stdDeviation="3" result="blur-6"/>
      <feFlood flood-opacity="0.161"/>
      <feComposite operator="in" in2="blur-6"/>
      <feComposite in="SourceGraphic"/>
    </filter>
    <filter id="Sign_up_block" x="-27" y="1064" width="1974" height="268.378" filterUnits="userSpaceOnUse">
      <feOffset dy="9" input="SourceAlpha"/>
      <feGaussianBlur stdDeviation="9" result="blur-7"/>
      <feFlood flood-opacity="0.18"/>
      <feComposite operator="in" in2="blur-7"/>
      <feComposite in="SourceGraphic"/>
    </filter>
    <filter id="Send_me_market_offerings_button." x="1427.787" y="1144.5" width="265.439" height="94.742" filterUnits="userSpaceOnUse">
      <feOffset dy="3" input="SourceAlpha"/>
      <feGaussianBlur stdDeviation="3" result="blur-8"/>
      <feFlood flood-opacity="0.161"/>
      <feComposite operator="in" in2="blur-8"/>
      <feComposite in="SourceGraphic"/>
    </filter>
    <filter id="Field_for_Name" x="376.719" y="1144.5" width="385.13" height="81.363" filterUnits="userSpaceOnUse">
      <feOffset dy="3" input="SourceAlpha"/>
      <feGaussianBlur stdDeviation="3" result="blur-9"/>
      <feFlood flood-opacity="0.161"/>
      <feComposite operator="in" in2="blur-9"/>
      <feComposite in="SourceGraphic"/>
    </filter>
    <filter id="Search_bar_for_address-2" x="860.719" y="1144.5" width="468.13" height="81.363" filterUnits="userSpaceOnUse">
      <feOffset dy="3" input="SourceAlpha"/>
      <feGaussianBlur stdDeviation="3" result="blur-10"/>
      <feFlood flood-opacity="0.161"/>
      <feComposite operator="in" in2="blur-10"/>
      <feComposite in="SourceGraphic"/>
    </filter>
    <filter id="Content_Block" x="-27" y="1279" width="1974" height="177" filterUnits="userSpaceOnUse">
      <feOffset dy="9" input="SourceAlpha"/>
      <feGaussianBlur stdDeviation="9" result="blur-11"/>
      <feFlood flood-opacity="0.18"/>
      <feComposite operator="in" in2="blur-11"/>
      <feComposite in="SourceGraphic"/>
    </filter>
    <clipPath id="clip-path">
      <rect class="cls-1" width="1838" height="38"/>
    </clipPath>
    <clipPath id="clip-Home_Desktop_1920">
      <rect width="1920" height="1420"/>
    </clipPath>
  </defs>
  <g id="Home_Desktop_1920" data-name="Home Desktop 1920" class="cls-2">
    <rect class="cls-5" width="1920" height="1420"/>
    <g id="Header_Module" data-name="Header Module">
      <g class="cls-31" transform="matrix(1, 0, 0, 1, 0, 0)">
        <path id="rectangle-5" data-name="rectangle" class="cls-3" d="M0,0H1920V146H0Z"/>
      </g>
      <g id="Bake_and_Take_Logo_Element" data-name="Bake and Take Logo Element" transform="translate(-71 -2)">
        <text id="Bake_and_Take" data-name="Bake and Take" class="cls-4" transform="translate(875 89)"><tspan x="0" y="0">Bake and Take</tspan></text>
      </g>
      <g id="Search_bar_for_craving_Component" data-name="Search bar for craving Component">
        <g class="cls-30" transform="matrix(1, 0, 0, 1, 0, 0)">
          <rect id="rectangle-6" data-name="rectangle" class="cls-5" width="221" height="47.308" rx="1" transform="translate(53 26.19)"/>
        </g>
        <g id="Search_icon" data-name="Search icon" transform="translate(5)">
          <g id="ic_search_" data-name="ic_search " class="cls-6" transform="translate(13.35 14.8)">
            <rect id="square" class="cls-1" width="48" height="48" transform="translate(31.65 47.7)"/>
            <path id="path" d="M59.4,72.7H57.8l-.6-.6a12.518,12.518,0,0,0,3.2-8.4,13,13,0,1,0-13,13,12.518,12.518,0,0,0,8.4-3.2l.6.6v1.6l10,10,3-3Zm-12,0a9,9,0,1,1,9-9A8.963,8.963,0,0,1,47.4,72.7Z" transform="translate(3.25 -29)"/>
          </g>
        </g>
        <text id="Search_for_craving" data-name="Search for craving" class="cls-7" transform="translate(127 59.5)"><tspan x="0" y="0">Recipes?</tspan></text>
        <text id="Browse_recipes" data-name="Browse recipes" class="cls-8" transform="translate(53 107.5)"><tspan x="0" y="0">Browse recipes.</tspan></text>
      </g>
      <text id="Basket" class="cls-8" transform="translate(1788 56.5)"><tspan x="0" y="0">Basket</tspan></text>
      <text id="Fresh_Bakes" data-name="Fresh Bakes" class="cls-8" transform="translate(1625 56.5)"><tspan x="0" y="0">Fresh Bakes</tspan></text>
      <text id="Log_in" data-name="Log in" class="cls-8" transform="translate(1524 56.5)"><tspan x="0" y="0">Log in </tspan></text>
    </g>
    <g id="Content_Block_Image_and_Text_Module" data-name="Content Block Image and Text Module">
      <g id="Content_Block_Image" data-name="Content Block Image">
        <g class="cls-29" transform="matrix(1, 0, 0, 1, 0, 0)">
          <rect id="rectangle-7" data-name="rectangle" class="cls-3" width="1921" height="468" transform="translate(0 613)"/>
        </g>
        <line id="Line_2" data-name="Line 2" class="cls-9" x2="1920" y2="467" transform="translate(0.5 613.5)"/>
        <line id="Line_4" data-name="Line 4" class="cls-9" y1="467" x2="1920" transform="translate(0.5 613.5)"/>
      </g>
      <text id="Browse" class="cls-10" transform="translate(731 986.5)"><tspan x="0" y="0">Browse farmer’s market recipes.</tspan></text>
    </g>
    <g id="Hero_Image_Module" data-name="Hero Image Module" transform="translate(7)">
      <g id="Hero_Block_Image" data-name="Hero Block Image" transform="translate(-8 -1)">
        <g class="cls-28" transform="matrix(1, 0, 0, 1, 1, 1)">
          <rect id="rectangle-8" data-name="rectangle" class="cls-3" width="1920.5" height="469.5" transform="translate(-1 143)"/>
        </g>
        <line id="Line_1" data-name="Line 1" class="cls-9" x2="1920" y2="467" transform="translate(0.5 146.5)"/>
        <line id="Line_3" data-name="Line 3" class="cls-9" y1="467" x2="1920" transform="translate(0.5 146.5)"/>
      </g>
      <g id="Header_question" data-name="Header question" transform="translate(587 -553)">
        <text id="Search_people_places" data-name="Search people &amp; places" class="cls-11" transform="translate(112 804.5)"><tspan x="0" y="0">What is baking nearby?</tspan></text>
      </g>
      <g id="Search_bar_for_address_component" data-name="Search bar for address component" transform="translate(-145 -1)">
        <g class="cls-27" transform="matrix(1, 0, 0, 1, 138, 1)">
          <path id="Search_bar_for_address-3" data-name="Search bar for address" class="cls-5" d="M1.131.5h569.43a.572.572,0,0,1,.631.48v62.4a.572.572,0,0,1-.631.48H1.131a.571.571,0,0,1-.631-.48V.98A.571.571,0,0,1,1.131.5Z" transform="translate(584.66 270)"/>
        </g>
        <g class="cls-26" transform="matrix(1, 0, 0, 1, 138, 1)">
          <path id="Search_around_me_button-2" data-name="Search around me button" class="cls-12" d="M.748.5H224.7c.137,0,.248.185.248.414v53.8c0,.229-.111.414-.248.414H.748c-.137,0-.248-.185-.248-.414V.914C.5.685.611.5.748.5Z" transform="translate(1179.29 274)"/>
        </g>
        <text id="Address" class="cls-13" transform="translate(807 311)"><tspan x="0" y="0">Address</tspan></text>
        <text id="Search_around_me" data-name="Search around me" class="cls-14" transform="translate(1332 310)"><tspan x="0" y="0">Search around me</tspan></text>
      </g>
    </g>
    <g id="Sign_Up_Module" data-name="Sign Up Module">
      <g class="cls-25" transform="matrix(1, 0, 0, 1, 0, 0)">
        <path id="Sign_up_block-2" data-name="Sign up block" class="cls-3" d="M0,0H1920V214.378H0Z" transform="translate(0 1082)"/>
      </g>
      <text id="Sign_up_for_recipes." data-name="Sign up for recipes." class="cls-15" transform="translate(977 1127)"><tspan x="-136.867" y="0">Sign up for recipes.</tspan></text>
      <g class="cls-24" transform="matrix(1, 0, 0, 1, 0, 0)">
        <path id="Send_me_market_offerings_button.-2" data-name="Send me market offerings button." class="cls-12" d="M.774.5H247.666c.151,0,.274.26.274.581V76.661c0,.321-.123.581-.274.581H.774c-.151,0-.274-.26-.274-.581V1.081C.5.76.623.5.774.5Z" transform="translate(1436.29 1150)"/>
      </g>
      <text id="Field_for_Email_Address" data-name="Field for Email Address" class="cls-14" transform="translate(1473 1183)"><tspan x="0" y="0">Send me market</tspan><tspan x="0" y="28">offerings.</tspan></text>
      <g class="cls-23" transform="matrix(1, 0, 0, 1, 0, 0)">
        <path id="Field_for_Name-2" data-name="Field for Name" class="cls-5" d="M.906.5H367.224a.448.448,0,0,1,.406.48v62.4a.448.448,0,0,1-.406.48H.906a.448.448,0,0,1-.406-.48V.98A.448.448,0,0,1,.906.5Z" transform="translate(385.22 1150)"/>
      </g>
      <g class="cls-22" transform="matrix(1, 0, 0, 1, 0, 0)">
        <path id="Search_bar_for_address-4" data-name="Search bar for address" class="cls-5" d="M1,.5H450.132a.489.489,0,0,1,.5.48v62.4a.489.489,0,0,1-.5.48H1a.489.489,0,0,1-.5-.48V.98A.489.489,0,0,1,1,.5Z" transform="translate(869.22 1150)"/>
      </g>
      <text id="Name" class="cls-16" transform="translate(386 1239)"><tspan x="0" y="0">Name</tspan></text>
      <text id="Email_Address" data-name="Email Address" class="cls-17" transform="translate(870 1239)"><tspan x="0" y="0">Email Address</tspan></text>
    </g>
    <g id="Footer_Module" data-name="Footer Module" transform="translate(-1)">
      <g class="cls-21" transform="matrix(1, 0, 0, 1, 1, 0)">
        <path id="Content_Block-2" data-name="Content Block" class="cls-3" d="M0,0H1920V123H0Z" transform="translate(0 1297)"/>
      </g>
      <g id="Footer_Grid" data-name="Footer Grid" class="cls-18" transform="translate(82 1344)">
        <g id="Group_50" data-name="Group 50" transform="translate(-60 -1403)">
          <g id="Rectangle_1" data-name="Rectangle 1" class="cls-19" transform="translate(60 1403)">
            <rect class="cls-20" width="274" height="39" rx="2"/>
            <rect class="cls-1" x="0.5" y="0.5" width="273" height="38" rx="1.5"/>
          </g>
        </g>
        <g id="Group_51" data-name="Group 51" transform="translate(312 -1403)">
          <g id="Rectangle_2" data-name="Rectangle 2" class="cls-19" transform="translate(60 1403)">
            <rect class="cls-20" width="274" height="39" rx="2"/>
            <rect class="cls-1" x="0.5" y="0.5" width="273" height="38" rx="1.5"/>
          </g>
        </g>
        <g id="Group_52" data-name="Group 52" transform="translate(684 -1403)">
          <g id="Rectangle_3" data-name="Rectangle 3" class="cls-19" transform="translate(60 1403)">
            <rect class="cls-20" width="274" height="39" rx="2"/>
            <rect class="cls-1" x="0.5" y="0.5" width="273" height="38" rx="1.5"/>
          </g>
        </g>
        <g id="Group_53" data-name="Group 53" transform="translate(1056 -1403)">
          <g id="Rectangle_4" data-name="Rectangle 4" class="cls-19" transform="translate(60 1403)">
            <rect class="cls-20" width="274" height="39" rx="2"/>
            <rect class="cls-1" x="0.5" y="0.5" width="273" height="38" rx="1.5"/>
          </g>
        </g>
        <g id="Group_54" data-name="Group 54" transform="translate(1428 -1403)">
          <g id="Rectangle_5" data-name="Rectangle 5" class="cls-19" transform="translate(60 1403)">
            <rect class="cls-20" width="274" height="39" rx="2"/>
            <rect class="cls-1" x="0.5" y="0.5" width="273" height="38" rx="1.5"/>
          </g>
        </g>
      </g>
    </g>
  </g>
</svg>
