<svg xmlns="http://www.w3.org/2000/svg" xmlns:xlink="http://www.w3.org/1999/xlink" viewBox="3980 0 1920 1080">
  <defs>
    <style>
      .cls-1, .cls-11 {
        fill: none;
      }

      .cls-2 {
        clip-path: url(#clip-Categories_Desktop_2_1920);
      }

      .cls-3 {
        fill: #fafafa;
      }

      .cls-4 {
        fill: #95989a;
        font-size: 36px;
        font-family: Roboto-Bold, Roboto;
        font-weight: 700;
      }

      .cls-13, .cls-5 {
        opacity: 0.54;
      }

      .cls-6 {
        clip-path: url(#clip-path);
      }

      .cls-7 {
        font-size: 24px;
        font-family: Roboto-Regular, Roboto;
        opacity: 0.38;
      }

      .cls-8 {
        clip-path: url(#clip-path-2);
      }

      .cls-10, .cls-9 {
        font-size: 18px;
        font-family: Roboto-Medium, Roboto;
        font-weight: 500;
        opacity: 0.382;
      }

      .cls-10 {
        fill: #4285f4;
      }

      .cls-11 {
        stroke: #95989a;
        stroke-width: 1px;
      }

      .cls-12 {
        clip-path: url(#clip-path-3);
      }

      .cls-13 {
        fill-rule: evenodd;
      }

      .cls-14 {
        fill: #fff;
      }

      .cls-15 {
        filter: url(#rectangle-8);
      }

      .cls-16 {
        filter: url(#rectangle-7);
      }

      .cls-17 {
        filter: url(#rectangle-6);
      }

      .cls-18 {
        filter: url(#rectangle-5);
      }

      .cls-19 {
        filter: url(#rectangle-4);
      }

      .cls-20 {
        filter: url(#rectangle-3);
      }

      .cls-21 {
        filter: url(#rectangle-2);
      }

      .cls-22 {
        filter: url(#rectangle);
      }
    </style>
    <filter id="rectangle" x="4292.569" y="731" width="599" height="599" filterUnits="userSpaceOnUse">
      <feOffset dy="9" input="SourceAlpha"/>
      <feGaussianBlur stdDeviation="9" result="blur"/>
      <feFlood flood-opacity="0.18"/>
      <feComposite operator="in" in2="blur"/>
      <feComposite in="SourceGraphic"/>
    </filter>
    <filter id="rectangle-2" x="3953" y="-18" width="1974" height="200" filterUnits="userSpaceOnUse">
      <feOffset dy="9" input="SourceAlpha"/>
      <feGaussianBlur stdDeviation="9" result="blur-2"/>
      <feFlood flood-opacity="0.18"/>
      <feComposite operator="in" in2="blur-2"/>
      <feComposite in="SourceGraphic"/>
    </filter>
    <clipPath id="clip-path">
      <rect class="cls-1" width="232" height="42"/>
    </clipPath>
    <filter id="rectangle-3" x="3953" y="127.984" width="340.859" height="988.016" filterUnits="userSpaceOnUse">
      <feOffset dy="9" input="SourceAlpha"/>
      <feGaussianBlur stdDeviation="9" result="blur-3"/>
      <feFlood flood-opacity="0.18"/>
      <feComposite operator="in" in2="blur-3"/>
      <feComposite in="SourceGraphic"/>
    </filter>
    <clipPath id="clip-path-2">
      <rect class="cls-1" width="102" height="473.997"/>
    </clipPath>
    <filter id="rectangle-4" x="4782.569" y="724" width="599" height="599" filterUnits="userSpaceOnUse">
      <feOffset dy="9" input="SourceAlpha"/>
      <feGaussianBlur stdDeviation="9" result="blur-4"/>
      <feFlood flood-opacity="0.18"/>
      <feComposite operator="in" in2="blur-4"/>
      <feComposite in="SourceGraphic"/>
    </filter>
    <filter id="rectangle-5" x="4241.569" y="724" width="599" height="599" filterUnits="userSpaceOnUse">
      <feOffset dy="9" input="SourceAlpha"/>
      <feGaussianBlur stdDeviation="9" result="blur-5"/>
      <feFlood flood-opacity="0.18"/>
      <feComposite operator="in" in2="blur-5"/>
      <feComposite in="SourceGraphic"/>
    </filter>
    <filter id="rectangle-6" x="5327.569" y="724" width="599" height="599" filterUnits="userSpaceOnUse">
      <feOffset dy="9" input="SourceAlpha"/>
      <feGaussianBlur stdDeviation="9" result="blur-6"/>
      <feFlood flood-opacity="0.18"/>
      <feComposite operator="in" in2="blur-6"/>
      <feComposite in="SourceGraphic"/>
    </filter>
    <filter id="rectangle-7" x="5057.569" y="128" width="869" height="649.609" filterUnits="userSpaceOnUse">
      <feOffset dy="9" input="SourceAlpha"/>
      <feGaussianBlur stdDeviation="9" result="blur-7"/>
      <feFlood flood-opacity="0.18"/>
      <feComposite operator="in" in2="blur-7"/>
      <feComposite in="SourceGraphic"/>
    </filter>
    <filter id="rectangle-8" x="4241.569" y="128" width="869" height="649.61" filterUnits="userSpaceOnUse">
      <feOffset dy="9" input="SourceAlpha"/>
      <feGaussianBlur stdDeviation="9" result="blur-8"/>
      <feFlood flood-opacity="0.18"/>
      <feComposite operator="in" in2="blur-8"/>
      <feComposite in="SourceGraphic"/>
    </filter>
    <clipPath id="clip-path-3">
      <rect class="cls-1" width="24" height="474"/>
    </clipPath>
    <clipPath id="clip-Categories_Desktop_2_1920">
      <rect x="3980" width="1920" height="1080"/>
    </clipPath>
  </defs>
  <g id="Categories_Desktop_2_1920" data-name="Categories Desktop 2 1920" class="cls-2">
    <rect class="cls-14" x="3980" width="1920" height="1080"/>
    <g id="Group_23" data-name="Group 23" transform="translate(4319.569 590)">
      <g class="cls-22" transform="matrix(1, 0, 0, 1, -4319.57, -590)">
        <rect id="rectangle-9" data-name="rectangle" class="cls-3" width="545" height="545" transform="translate(4319.57 749)"/>
      </g>
    </g>
    <g id="Group_2" data-name="Group 2" transform="translate(3980)">
      <g id="Group_1" data-name="Group 1">
        <g class="cls-21" transform="matrix(1, 0, 0, 1, -3980, 0)">
          <path id="rectangle-10" data-name="rectangle" class="cls-3" d="M0,0H1920V146H0Z" transform="translate(3980)"/>
        </g>
      </g>
    </g>
    <g id="Group_5" data-name="Group 5" transform="translate(3980)">
      <text id="LOGO" class="cls-4" transform="translate(914 87)"><tspan x="0" y="0">LOGO</tspan></text>
    </g>
    <g id="Group_25" data-name="Group 25" transform="translate(3980)">
      <g id="Group_3" data-name="Group 3">
        <g id="ic_search_" data-name="ic_search " class="cls-5" transform="translate(13.35 14.8)">
          <rect id="square" class="cls-1" width="48" height="48" transform="translate(31.65 47.7)"/>
          <path id="path" d="M59.4,72.7H57.8l-.6-.6a12.518,12.518,0,0,0,3.2-8.4,13,13,0,1,0-13,13,12.518,12.518,0,0,0,8.4-3.2l.6.6v1.6l10,10,3-3Zm-12,0a9,9,0,1,1,9-9A8.963,8.963,0,0,1,47.4,72.7Z" transform="translate(3.25 -29)"/>
        </g>
      </g>
      <g id="Group_24" data-name="Group 24">
        <g id="Repeat_Grid_1" data-name="Repeat Grid 1" class="cls-6" transform="translate(122 31.5)">
          <g id="ui_search_items" transform="translate(-112 -779.5)">
            <rect id="rectangle-11" data-name="rectangle" class="cls-1" width="232" height="32.308" transform="translate(112 789.192)"/>
            <text id="Search_people_places" data-name="Search people &amp; places" class="cls-7" transform="translate(112 804.5)"><tspan x="0" y="0">Search</tspan></text>
          </g>
        </g>
      </g>
      <g id="ui_search_items-2" data-name="ui_search_items" transform="translate(1676 -751)">
        <rect id="rectangle-12" data-name="rectangle" class="cls-1" width="232" height="32.308" transform="translate(112 789.192)"/>
        <g id="Group_22" data-name="Group 22">
          <g id="Group_21" data-name="Group 21">
            <g id="Group_20" data-name="Group 20">
              <g id="Group_19" data-name="Group 19">
                <g id="Group_18" data-name="Group 18">
                  <text id="Search_people_places-2" data-name="Search people &amp; places" class="cls-7" transform="translate(112 807.5)"><tspan x="0" y="0">Cart</tspan></text>
                </g>
              </g>
            </g>
          </g>
        </g>
      </g>
      <g id="ui_search_items-3" data-name="ui_search_items" transform="translate(1412 -748)">
        <rect id="rectangle-13" data-name="rectangle" class="cls-1" width="232" height="32.308" transform="translate(112 789.192)"/>
        <g id="Group_8" data-name="Group 8">
          <g id="Group_7" data-name="Group 7">
            <g id="Group_6" data-name="Group 6">
              <text id="Search_people_places-3" data-name="Search people &amp; places" class="cls-7" transform="translate(112 804.5)"><tspan x="0" y="0">Log in </tspan></text>
            </g>
          </g>
        </g>
      </g>
      <g id="ui_search_items-4" data-name="ui_search_items" transform="translate(1543 -748)">
        <rect id="rectangle-14" data-name="rectangle" class="cls-1" width="232" height="32.308" transform="translate(112 789.192)"/>
        <g id="Group_17" data-name="Group 17">
          <g id="Group_16" data-name="Group 16">
            <g id="Group_15" data-name="Group 15">
              <g id="Group_14" data-name="Group 14">
                <g id="Group_13" data-name="Group 13">
                  <g id="Group_12" data-name="Group 12">
                    <g id="Group_11" data-name="Group 11">
                      <g id="Group_10" data-name="Group 10">
                        <g id="Group_9" data-name="Group 9">
                          <text id="Search_people_places-4" data-name="Search people &amp; places" class="cls-7" transform="translate(112 804.5)"><tspan x="0" y="0">Sign up</tspan></text>
                        </g>
                      </g>
                    </g>
                  </g>
                </g>
              </g>
            </g>
          </g>
        </g>
      </g>
    </g>
    <g id="Group_27" data-name="Group 27" transform="translate(3980 -9.016)">
      <g class="cls-20" transform="matrix(1, 0, 0, 1, -3980, 9.02)">
        <rect id="rectangle-15" data-name="rectangle" class="cls-3" width="286.859" height="934.016" transform="translate(3980 145.98)"/>
      </g>
    </g>
    <g id="Repeat_Grid_2" data-name="Repeat Grid 2" class="cls-8" transform="translate(4025 187)">
      <g id="Group" transform="translate(-45 -318.28)">
        <text id="text" class="cls-9" transform="translate(45 335.28)"><tspan x="0" y="0">New Arrivals</tspan></text>
        <text id="text-2" data-name="text" class="cls-9" transform="translate(45 410.779)"><tspan x="0" y="0">Wedding</tspan></text>
        <text id="text-3" data-name="text" class="cls-9" transform="translate(45 486.279)"><tspan x="0" y="0">Shoes</tspan></text>
        <text id="text-4" data-name="text" class="cls-9" transform="translate(45 561.778)"><tspan x="0" y="0">Accessories</tspan></text>
        <text id="text-5" data-name="text" class="cls-9" transform="translate(45 637.278)"><tspan x="0" y="0">Beauty</tspan></text>
        <text id="text-6" data-name="text" class="cls-9" transform="translate(45 712.777)"><tspan x="0" y="0">Sale</tspan></text>
        <text id="text-7" data-name="text" class="cls-10" transform="translate(45 788.277)"><tspan x="0" y="0">Dresses</tspan></text>
      </g>
    </g>
    <text id="text-8" data-name="text" class="cls-9" transform="translate(4059 708.776)"><tspan x="0" y="0">Casual &amp; Everyday</tspan></text>
    <text id="text-9" data-name="text" class="cls-9" transform="translate(4060 755.276)"><tspan x="0" y="0">Occassion &amp; Cocktail</tspan></text>
    <text id="text-10" data-name="text" class="cls-9" transform="translate(4060 801.276)"><tspan x="0" y="0">Tunic &amp; Swing</tspan></text>
    <text id="text-11" data-name="text" class="cls-9" transform="translate(4060 893.276)"><tspan x="0" y="0">Fit &amp; Flare</tspan></text>
    <text id="text-12" data-name="text" class="cls-9" transform="translate(4060 847.276)"><tspan x="0" y="0">Maxi &amp; Midi</tspan></text>
    <g id="Group_28" data-name="Group 28" transform="translate(4809.569 583)">
      <g class="cls-19" transform="matrix(1, 0, 0, 1, -4809.57, -583)">
        <rect id="rectangle-16" data-name="rectangle" class="cls-3" width="545" height="545" transform="translate(4809.57 742)"/>
      </g>
    </g>
    <g id="Group_29" data-name="Group 29" transform="translate(4268.569 583)">
      <g class="cls-18" transform="matrix(1, 0, 0, 1, -4268.57, -583)">
        <rect id="rectangle-17" data-name="rectangle" class="cls-3" width="545" height="545" transform="translate(4268.57 742)"/>
      </g>
    </g>
    <g id="Group_30" data-name="Group 30" transform="translate(5354.569 583)">
      <g class="cls-17" transform="matrix(1, 0, 0, 1, -5354.57, -583)">
        <rect id="rectangle-18" data-name="rectangle" class="cls-3" width="545" height="545" transform="translate(5354.57 742)"/>
      </g>
    </g>
    <g id="Group_31" data-name="Group 31" transform="translate(5084.569 -13)">
      <g class="cls-16" transform="matrix(1, 0, 0, 1, -5084.57, 13)">
        <rect id="rectangle-19" data-name="rectangle" class="cls-3" width="815" height="595.609" transform="translate(5084.57 146)"/>
      </g>
    </g>
    <g id="Group_32" data-name="Group 32" transform="translate(4265.569 -5)">
      <g class="cls-15" transform="matrix(1, 0, 0, 1, -4265.57, 5)">
        <rect id="rectangle-20" data-name="rectangle" class="cls-3" width="815" height="595.61" transform="translate(4268.57 146)"/>
      </g>
    </g>
    <line id="Line_5" data-name="Line 5" class="cls-11" x1="816" y2="597" transform="translate(4268.5 145.5)"/>
    <line id="Line_6" data-name="Line 6" class="cls-11" x2="814" y2="597" transform="translate(4268.5 145.5)"/>
    <line id="Line_7" data-name="Line 7" class="cls-11" x1="816" y2="597" transform="translate(5084.5 144.5)"/>
    <line id="Line_8" data-name="Line 8" class="cls-11" x2="814" y2="597" transform="translate(5084.5 144.5)"/>
    <line id="Line_9" data-name="Line 9" class="cls-11" x2="547" y2="539" transform="translate(4266.5 748.5)"/>
    <line id="Line_10" data-name="Line 10" class="cls-11" x1="545" y2="538" transform="translate(4268.5 742.5)"/>
    <line id="Line_11" data-name="Line 11" class="cls-11" x2="547" y2="539" transform="translate(4810.5 741.5)"/>
    <line id="Line_12" data-name="Line 12" class="cls-11" x1="545" y2="538" transform="translate(4809.5 741.5)"/>
    <line id="Line_13" data-name="Line 13" class="cls-11" x2="547" y2="539" transform="translate(5353.5 742.5)"/>
    <line id="Line_14" data-name="Line 14" class="cls-11" x1="545" y2="538" transform="translate(5352.5 742.5)"/>
    <g id="Repeat_Grid_4" data-name="Repeat Grid 4" class="cls-12" transform="translate(4207 187)">
      <g id="ic_add">
        <rect id="rectangle-21" data-name="rectangle" class="cls-1" width="24" height="24"/>
        <path id="path-2" data-name="path" class="cls-13" d="M11,5v6H5v2h6v6h2V13h6V11H13V5Z"/>
      </g>
      <g id="ic_add-2" data-name="ic_add" transform="translate(0 74)">
        <rect id="rectangle-22" data-name="rectangle" class="cls-1" width="24" height="24"/>
        <path id="path-3" data-name="path" class="cls-13" d="M11,5v6H5v2h6v6h2V13h6V11H13V5Z"/>
      </g>
      <g id="ic_add-3" data-name="ic_add" transform="translate(0 148)">
        <rect id="rectangle-23" data-name="rectangle" class="cls-1" width="24" height="24"/>
        <path id="path-4" data-name="path" class="cls-13" d="M11,5v6H5v2h6v6h2V13h6V11H13V5Z"/>
      </g>
      <g id="ic_add-4" data-name="ic_add" transform="translate(0 222)">
        <rect id="rectangle-24" data-name="rectangle" class="cls-1" width="24" height="24"/>
        <path id="path-5" data-name="path" class="cls-13" d="M11,5v6H5v2h6v6h2V13h6V11H13V5Z"/>
      </g>
      <g id="ic_add-5" data-name="ic_add" transform="translate(0 296)">
        <rect id="rectangle-25" data-name="rectangle" class="cls-1" width="24" height="24"/>
        <path id="path-6" data-name="path" class="cls-13" d="M11,5v6H5v2h6v6h2V13h6V11H13V5Z"/>
      </g>
      <g id="ic_add-6" data-name="ic_add" transform="translate(0 370)">
        <rect id="rectangle-26" data-name="rectangle" class="cls-1" width="24" height="24"/>
        <path id="path-7" data-name="path" class="cls-13" d="M11,5v6H5v2h6v6h2V13h6V11H13V5Z"/>
      </g>
      <g id="ic_add-7" data-name="ic_add" transform="translate(0 444)">
        <rect id="rectangle-27" data-name="rectangle" class="cls-1" width="24" height="24"/>
        <path id="path-8" data-name="path" class="cls-13" d="M11,5v6H5v2h6v6h2V13h6V11H13V5Z"/>
      </g>
    </g>
  </g>
</svg>
