<svg xmlns="http://www.w3.org/2000/svg" xmlns:xlink="http://www.w3.org/1999/xlink" viewBox="6296.569 208 1519.931 914">
  <defs>
    <style>
      .cls-1, .cls-6 {
        fill: none;
      }

      .cls-2 {
        clip-path: url(#clip-path);
      }

      .cls-3 {
        fill: #fafafa;
      }

      .cls-4 {
        fill: #95989a;
        font-size: 18px;
        font-family: Roboto-Regular, Roboto;
      }

      .cls-5 {
        fill: #ea7c85;
        stroke-width: 3px;
        opacity: 0.568;
      }

      .cls-5, .cls-6 {
        stroke: #95989a;
      }

      .cls-6 {
        stroke-width: 1px;
      }

      .cls-7 {
        stroke: none;
      }

      .cls-8 {
        filter: url(#rectangle-8);
      }

      .cls-9 {
        filter: url(#rectangle-7);
      }

      .cls-10 {
        filter: url(#rectangle-6);
      }

      .cls-11 {
        filter: url(#rectangle-5);
      }

      .cls-12 {
        filter: url(#rectangle-4);
      }

      .cls-13 {
        filter: url(#rectangle-3);
      }

      .cls-14 {
        filter: url(#rectangle-2);
      }

      .cls-15 {
        filter: url(#rectangle);
      }
    </style>
    <clipPath id="clip-path">
      <rect class="cls-1" width="1519.931" height="914"/>
    </clipPath>
    <filter id="rectangle" x="6269.569" y="190" width="326.368" height="368.641" filterUnits="userSpaceOnUse">
      <feOffset dy="9" input="SourceAlpha"/>
      <feGaussianBlur stdDeviation="9" result="blur"/>
      <feFlood flood-opacity="0.18"/>
      <feComposite operator="in" in2="blur"/>
      <feComposite in="SourceGraphic"/>
    </filter>
    <filter id="rectangle-2" x="6666.569" y="190" width="326.368" height="368.641" filterUnits="userSpaceOnUse">
      <feOffset dy="9" input="SourceAlpha"/>
      <feGaussianBlur stdDeviation="9" result="blur-2"/>
      <feFlood flood-opacity="0.18"/>
      <feComposite operator="in" in2="blur-2"/>
      <feComposite in="SourceGraphic"/>
    </filter>
    <filter id="rectangle-3" x="7063.569" y="190" width="326.368" height="368.641" filterUnits="userSpaceOnUse">
      <feOffset dy="9" input="SourceAlpha"/>
      <feGaussianBlur stdDeviation="9" result="blur-3"/>
      <feFlood flood-opacity="0.18"/>
      <feComposite operator="in" in2="blur-3"/>
      <feComposite in="SourceGraphic"/>
    </filter>
    <filter id="rectangle-4" x="7460.569" y="190" width="326.368" height="368.641" filterUnits="userSpaceOnUse">
      <feOffset dy="9" input="SourceAlpha"/>
      <feGaussianBlur stdDeviation="9" result="blur-4"/>
      <feFlood flood-opacity="0.18"/>
      <feComposite operator="in" in2="blur-4"/>
      <feComposite in="SourceGraphic"/>
    </filter>
    <filter id="rectangle-5" x="6269.569" y="653" width="326.368" height="368.641" filterUnits="userSpaceOnUse">
      <feOffset dy="9" input="SourceAlpha"/>
      <feGaussianBlur stdDeviation="9" result="blur-5"/>
      <feFlood flood-opacity="0.18"/>
      <feComposite operator="in" in2="blur-5"/>
      <feComposite in="SourceGraphic"/>
    </filter>
    <filter id="rectangle-6" x="6666.569" y="653" width="326.368" height="368.641" filterUnits="userSpaceOnUse">
      <feOffset dy="9" input="SourceAlpha"/>
      <feGaussianBlur stdDeviation="9" result="blur-6"/>
      <feFlood flood-opacity="0.18"/>
      <feComposite operator="in" in2="blur-6"/>
      <feComposite in="SourceGraphic"/>
    </filter>
    <filter id="rectangle-7" x="7063.569" y="653" width="326.368" height="368.641" filterUnits="userSpaceOnUse">
      <feOffset dy="9" input="SourceAlpha"/>
      <feGaussianBlur stdDeviation="9" result="blur-7"/>
      <feFlood flood-opacity="0.18"/>
      <feComposite operator="in" in2="blur-7"/>
      <feComposite in="SourceGraphic"/>
    </filter>
    <filter id="rectangle-8" x="7460.569" y="653" width="326.368" height="368.641" filterUnits="userSpaceOnUse">
      <feOffset dy="9" input="SourceAlpha"/>
      <feGaussianBlur stdDeviation="9" result="blur-8"/>
      <feFlood flood-opacity="0.18"/>
      <feComposite operator="in" in2="blur-8"/>
      <feComposite in="SourceGraphic"/>
    </filter>
  </defs>
  <g id="Repeat_Grid_1" data-name="Repeat Grid 1" class="cls-2" transform="translate(6296.569 208)">
    <g id="Group" transform="translate(-365.569 -187)">
      <g id="Group_23" data-name="Group 23" transform="translate(365.569 28)">
        <g class="cls-15" transform="matrix(1, 0, 0, 1, -6296.57, -49)">
          <rect id="rectangle-9" data-name="rectangle" class="cls-3" width="272.368" height="314.641" transform="translate(6296.57 208)"/>
        </g>
      </g>
      <text id="Deloria_Printed_Silk_Dress_168.00_" data-name="Deloria Printed Silk Dress
$168.00
" class="cls-4" transform="translate(367 540)"><tspan x="0" y="0">Deloria Printed Silk Dress</tspan><tspan x="0" y="30">$168.00</tspan><tspan x="0" y="60"></tspan></text>
      <g id="Ellipse_1" data-name="Ellipse 1" class="cls-5" transform="translate(367 583)">
        <circle class="cls-7" cx="15.5" cy="15.5" r="15.5"/>
        <circle class="cls-1" cx="15.5" cy="15.5" r="14"/>
      </g>
      <line id="Line_17" data-name="Line 17" class="cls-6" x2="271" y2="314" transform="translate(366.5 187.5)"/>
      <line id="Line_18" data-name="Line 18" class="cls-6" x1="272" y2="314" transform="translate(365.5 187.5)"/>
    </g>
    <g id="Group-2" data-name="Group" transform="translate(31.431 -187)">
      <g id="Group_23-2" data-name="Group 23" transform="translate(365.569 28)">
        <g class="cls-14" transform="matrix(1, 0, 0, 1, -6693.57, -49)">
          <rect id="rectangle-10" data-name="rectangle" class="cls-3" width="272.368" height="314.641" transform="translate(6693.57 208)"/>
        </g>
      </g>
      <text id="Deloria_Printed_Silk_Dress_168.00_2" data-name="Deloria Printed Silk Dress
$168.00
" class="cls-4" transform="translate(367 540)"><tspan x="0" y="0">Deloria Printed Silk Dress</tspan><tspan x="0" y="30">$168.00</tspan><tspan x="0" y="60"></tspan></text>
      <g id="Ellipse_1-2" data-name="Ellipse 1" class="cls-5" transform="translate(367 583)">
        <circle class="cls-7" cx="15.5" cy="15.5" r="15.5"/>
        <circle class="cls-1" cx="15.5" cy="15.5" r="14"/>
      </g>
      <line id="Line_17-2" data-name="Line 17" class="cls-6" x2="271" y2="314" transform="translate(366.5 187.5)"/>
      <line id="Line_18-2" data-name="Line 18" class="cls-6" x1="272" y2="314" transform="translate(365.5 187.5)"/>
    </g>
    <g id="Group-3" data-name="Group" transform="translate(428.431 -187)">
      <g id="Group_23-3" data-name="Group 23" transform="translate(365.569 28)">
        <g class="cls-13" transform="matrix(1, 0, 0, 1, -7090.57, -49)">
          <rect id="rectangle-11" data-name="rectangle" class="cls-3" width="272.368" height="314.641" transform="translate(7090.57 208)"/>
        </g>
      </g>
      <text id="Deloria_Printed_Silk_Dress_168.00_3" data-name="Deloria Printed Silk Dress
$168.00
" class="cls-4" transform="translate(367 540)"><tspan x="0" y="0">Deloria Printed Silk Dress</tspan><tspan x="0" y="30">$168.00</tspan><tspan x="0" y="60"></tspan></text>
      <g id="Ellipse_1-3" data-name="Ellipse 1" class="cls-5" transform="translate(367 583)">
        <circle class="cls-7" cx="15.5" cy="15.5" r="15.5"/>
        <circle class="cls-1" cx="15.5" cy="15.5" r="14"/>
      </g>
      <line id="Line_17-3" data-name="Line 17" class="cls-6" x2="271" y2="314" transform="translate(366.5 187.5)"/>
      <line id="Line_18-3" data-name="Line 18" class="cls-6" x1="272" y2="314" transform="translate(365.5 187.5)"/>
    </g>
    <g id="Group-4" data-name="Group" transform="translate(825.431 -187)">
      <g id="Group_23-4" data-name="Group 23" transform="translate(365.569 28)">
        <g class="cls-12" transform="matrix(1, 0, 0, 1, -7487.57, -49)">
          <rect id="rectangle-12" data-name="rectangle" class="cls-3" width="272.368" height="314.641" transform="translate(7487.57 208)"/>
        </g>
      </g>
      <text id="Deloria_Printed_Silk_Dress_168.00_4" data-name="Deloria Printed Silk Dress
$168.00
" class="cls-4" transform="translate(367 540)"><tspan x="0" y="0">Deloria Printed Silk Dress</tspan><tspan x="0" y="30">$168.00</tspan><tspan x="0" y="60"></tspan></text>
      <g id="Ellipse_1-4" data-name="Ellipse 1" class="cls-5" transform="translate(367 583)">
        <circle class="cls-7" cx="15.5" cy="15.5" r="15.5"/>
        <circle class="cls-1" cx="15.5" cy="15.5" r="14"/>
      </g>
      <line id="Line_17-4" data-name="Line 17" class="cls-6" x2="271" y2="314" transform="translate(366.5 187.5)"/>
      <line id="Line_18-4" data-name="Line 18" class="cls-6" x1="272" y2="314" transform="translate(365.5 187.5)"/>
    </g>
    <g id="Group-5" data-name="Group" transform="translate(-365.569 276)">
      <g id="Group_23-5" data-name="Group 23" transform="translate(365.569 28)">
        <g class="cls-11" transform="matrix(1, 0, 0, 1, -6296.57, -512)">
          <rect id="rectangle-13" data-name="rectangle" class="cls-3" width="272.368" height="314.641" transform="translate(6296.57 671)"/>
        </g>
      </g>
      <text id="Deloria_Printed_Silk_Dress_168.00_5" data-name="Deloria Printed Silk Dress
$168.00
" class="cls-4" transform="translate(367 540)"><tspan x="0" y="0">Deloria Printed Silk Dress</tspan><tspan x="0" y="30">$168.00</tspan><tspan x="0" y="60"></tspan></text>
      <g id="Ellipse_1-5" data-name="Ellipse 1" class="cls-5" transform="translate(367 583)">
        <circle class="cls-7" cx="15.5" cy="15.5" r="15.5"/>
        <circle class="cls-1" cx="15.5" cy="15.5" r="14"/>
      </g>
      <line id="Line_17-5" data-name="Line 17" class="cls-6" x2="271" y2="314" transform="translate(366.5 187.5)"/>
      <line id="Line_18-5" data-name="Line 18" class="cls-6" x1="272" y2="314" transform="translate(365.5 187.5)"/>
    </g>
    <g id="Group-6" data-name="Group" transform="translate(31.431 276)">
      <g id="Group_23-6" data-name="Group 23" transform="translate(365.569 28)">
        <g class="cls-10" transform="matrix(1, 0, 0, 1, -6693.57, -512)">
          <rect id="rectangle-14" data-name="rectangle" class="cls-3" width="272.368" height="314.641" transform="translate(6693.57 671)"/>
        </g>
      </g>
      <text id="Deloria_Printed_Silk_Dress_168.00_6" data-name="Deloria Printed Silk Dress
$168.00
" class="cls-4" transform="translate(367 540)"><tspan x="0" y="0">Deloria Printed Silk Dress</tspan><tspan x="0" y="30">$168.00</tspan><tspan x="0" y="60"></tspan></text>
      <g id="Ellipse_1-6" data-name="Ellipse 1" class="cls-5" transform="translate(367 583)">
        <circle class="cls-7" cx="15.5" cy="15.5" r="15.5"/>
        <circle class="cls-1" cx="15.5" cy="15.5" r="14"/>
      </g>
      <line id="Line_17-6" data-name="Line 17" class="cls-6" x2="271" y2="314" transform="translate(366.5 187.5)"/>
      <line id="Line_18-6" data-name="Line 18" class="cls-6" x1="272" y2="314" transform="translate(365.5 187.5)"/>
    </g>
    <g id="Group-7" data-name="Group" transform="translate(428.431 276)">
      <g id="Group_23-7" data-name="Group 23" transform="translate(365.569 28)">
        <g class="cls-9" transform="matrix(1, 0, 0, 1, -7090.57, -512)">
          <rect id="rectangle-15" data-name="rectangle" class="cls-3" width="272.368" height="314.641" transform="translate(7090.57 671)"/>
        </g>
      </g>
      <text id="Deloria_Printed_Silk_Dress_168.00_7" data-name="Deloria Printed Silk Dress
$168.00
" class="cls-4" transform="translate(367 540)"><tspan x="0" y="0">Deloria Printed Silk Dress</tspan><tspan x="0" y="30">$168.00</tspan><tspan x="0" y="60"></tspan></text>
      <g id="Ellipse_1-7" data-name="Ellipse 1" class="cls-5" transform="translate(367 583)">
        <circle class="cls-7" cx="15.5" cy="15.5" r="15.5"/>
        <circle class="cls-1" cx="15.5" cy="15.5" r="14"/>
      </g>
      <line id="Line_17-7" data-name="Line 17" class="cls-6" x2="271" y2="314" transform="translate(366.5 187.5)"/>
      <line id="Line_18-7" data-name="Line 18" class="cls-6" x1="272" y2="314" transform="translate(365.5 187.5)"/>
    </g>
    <g id="Group-8" data-name="Group" transform="translate(825.431 276)">
      <g id="Group_23-8" data-name="Group 23" transform="translate(365.569 28)">
        <g class="cls-8" transform="matrix(1, 0, 0, 1, -7487.57, -512)">
          <rect id="rectangle-16" data-name="rectangle" class="cls-3" width="272.368" height="314.641" transform="translate(7487.57 671)"/>
        </g>
      </g>
      <text id="Deloria_Printed_Silk_Dress_168.00_8" data-name="Deloria Printed Silk Dress
$168.00
" class="cls-4" transform="translate(367 540)"><tspan x="0" y="0">Deloria Printed Silk Dress</tspan><tspan x="0" y="30">$168.00</tspan><tspan x="0" y="60"></tspan></text>
      <g id="Ellipse_1-8" data-name="Ellipse 1" class="cls-5" transform="translate(367 583)">
        <circle class="cls-7" cx="15.5" cy="15.5" r="15.5"/>
        <circle class="cls-1" cx="15.5" cy="15.5" r="14"/>
      </g>
      <line id="Line_17-8" data-name="Line 17" class="cls-6" x2="271" y2="314" transform="translate(366.5 187.5)"/>
      <line id="Line_18-8" data-name="Line 18" class="cls-6" x1="272" y2="314" transform="translate(365.5 187.5)"/>
    </g>
  </g>
</svg>
